<?xml version="1.0" standalone="no"?>
<!DOCTYPE svg PUBLIC "-//W3C//DTD SVG 20010904//EN"
 "http://www.w3.org/TR/2001/REC-SVG-20010904/DTD/svg10.dtd">
<svg version="1.0" xmlns="http://www.w3.org/2000/svg"
 width="800.000000pt" height="800.000000pt" viewBox="0 0 800.000000 800.000000"
 preserveAspectRatio="xMidYMid meet">
<metadata>
Created by potrace 1.14, written by Peter Selinger 2001-2017
</metadata>
<g transform="translate(0.000000,800.000000) scale(0.100000,-0.100000)"
fill="#000000" stroke="none">
<path d="M0 4000 l0 -4000 4000 0 4000 0 0 4000 0 4000 -4000 0 -4000 0 0
-4000z m2946 1690 c136 -12 221 -34 332 -86 205 -95 339 -229 437 -437 80
-167 89 -218 89 -472 0 -257 -11 -311 -94 -481 -119 -245 -318 -411 -578 -482
l-97 -26 -502 -4 -503 -3 0 -705 0 -704 -305 0 -305 0 0 1698 c0 934 3 1702 7
1705 10 10 1404 8 1519 -3z m2884 0 c212 -22 402 -125 532 -288 68 -86 148
-244 178 -352 37 -133 42 -292 37 -1161 -3 -739 -6 -832 -21 -899 -70 -300
-257 -538 -502 -640 -144 -60 -147 -60 -1035 -60 l-809 0 0 1698 c0 934 3
1702 7 1705 11 12 1501 8 1613 -3z"/>
<path d="M2030 4700 l0 -401 453 3 c513 4 506 3 596 84 86 77 130 207 118 349
-17 195 -129 327 -304 355 -32 6 -239 10 -460 10 l-403 0 0 -400z"/>
<path d="M4840 3995 l0 -1076 428 3 427 3 56 28 c69 33 132 99 167 175 l27 57
0 810 0 810 -27 56 c-36 71 -109 148 -173 179 l-50 25 -427 3 -428 3 0 -1076z"/>
</g>
</svg>
